Coordinates
version=1
nRows=6
nColumns=63
inDegrees=yes

Units are S.I. units (second, meters, Newtons, ...)
If the header above contains a line with 'inDegrees', this indicates whether rotational values are in degrees (yes) or radians (no).

endheader
time	pelvis_tilt	pelvis_list	pelvis_rotation	pelvis_tx	pelvis_ty	pelvis_tz	hip_flexion_r	hip_adduction_r	hip_rotation_r	knee_angle_r	knee_angle_r_beta	ankle_angle_r	subtalar_angle_r	mtp_angle_r	hip_flexion_l	hip_adduction_l	hip_rotation_l	knee_angle_l	knee_angle_l_beta	ankle_angle_l	subtalar_angle_l	mtp_angle_l	L5_S1_Flex_Ext	L5_S1_Lat_Bending	L5_S1_axial_rotation	L4_L5_Flex_Ext	L4_L5_Lat_Bending	L4_L5_axial_rotation	L3_L4_Flex_Ext	L3_L4_Lat_Bending	L3_L4_axial_rotation	L2_L3_Flex_Ext	L2_L3_Lat_Bending	L2_L3_axial_rotation	L1_L2_Flex_Ext	L1_L2_Lat_Bending	L1_L2_axial_rotation	L1_T12_Flex_Ext	L1_T12_Lat_Bending	L1_T12_axial_rotation	Abs_r3	Abs_r2	Abs_r1	Abs_t1	Abs_t2	neck_flexion	neck_bending	neck_rotation	arm_flex_r	arm_add_r	arm_rot_r	elbow_flex_r	pro_sup_r	wrist_flex_r	wrist_dev_r	arm_flex_l	arm_add_l	arm_rot_l	elbow_flex_l	pro_sup_l	wrist_flex_l	wrist_dev_l
0.000000	-3.488278	-5.171393	87.379975	0.314485	0.913415	0.647243	11.868809	-5.734855	-20.125683	14.337728	0.250241	30.699366	18.398450	0.000000	9.514288	2.325225	20.423100	3.644941	0.063616	28.737343	-11.277400	0.000000	0.087268	-0.189072	0.433453	0.162066	-0.251465	0.460544	0.143373	-0.459709	0.460544	0.099739	-0.459709	0.379271	0.081037	-0.385555	0.352180	0.049865	-0.292872	0.325090	0.623348	-2.138816	2.410734	0.000000	0.000000	28.234602	3.554138	1.789375	4.266098	-10.370454	24.279370	37.045002	68.392298	-10.006640	-4.670131	8.075204	-12.636713	44.987778	37.221117	86.815399	-10.790960	-11.744157
0.016667	-2.642653	-5.135822	87.903384	0.315238	0.914746	0.647290	11.324348	-4.341165	-14.871885	12.873667	0.224688	29.888309	12.034978	0.000000	10.160161	1.474985	18.717992	5.111200	0.089207	30.223609	-8.970279	0.000000	0.088745	-0.109377	0.440232	0.164809	-0.145472	0.467746	0.145800	-0.265940	0.467746	0.101427	-0.265940	0.385203	0.082409	-0.223043	0.357688	0.050709	-0.169426	0.330174	0.633899	-1.237300	2.448436	0.000000	0.000000	28.117713	3.103442	0.600152	5.904749	-9.726170	28.258202	36.991124	77.282067	-5.851508	-5.008613	11.011056	-11.001716	50.944021	37.777471	76.820047	-6.680894	-8.480645
0.033333	-1.941520	-5.075940	88.262970	0.316131	0.916019	0.647229	10.833445	-3.156007	-10.323964	11.624732	0.202890	29.197456	6.547241	0.000000	10.649427	0.739446	17.103254	6.347916	0.110792	31.451864	-6.894235	0.000000	0.088468	-0.044796	0.451461	0.164293	-0.059579	0.479678	0.145344	-0.108917	0.479678	0.101110	-0.108917	0.395029	0.082151	-0.091348	0.366812	0.050550	-0.069389	0.338596	0.631916	-0.506741	2.510893	0.000000	0.000000	28.003827	2.684591	-0.395221	7.259581	-9.181466	31.724312	36.980192	82.922901	-2.288296	-4.933700	13.583771	-9.618247	56.035370	38.210865	68.360969	-3.278604	-5.778771
0.050000	-1.373571	-4.995511	88.476106	0.317138	0.917229	0.647075	10.394661	-2.164502	-6.435176	10.576113	0.184588	28.618657	1.876667	0.000000	10.998149	0.111321	15.576770	7.372836	0.128680	32.445515	-5.034348	0.000000	0.086669	0.005988	0.466449	0.160953	0.007965	0.495602	0.142389	0.014560	0.495602	0.099054	0.014560	0.408143	0.080481	0.012212	0.378990	0.049523	0.009276	0.349836	0.619069	0.067742	2.594247	0.000000	0.000000	27.893838	2.301097	-1.209205	8.355103	-8.729114	34.712761	37.006752	85.695679	0.729846	-4.500592	15.813235	-8.468227	60.329193	38.534095	61.319803	-0.525790	-3.602277
0.066667	-0.927499	-4.898298	88.560162	0.318229	0.918370	0.646845	10.006558	-1.351773	-3.158777	9.712997	0.169524	28.143760	-2.035317	0.000000	11.222393	-0.416675	14.136425	8.203706	0.143182	33.227964	-3.375696	0.000000	0.083583	0.044291	0.484500	0.155222	0.058907	0.514781	0.137319	0.107690	0.514781	0.095527	0.107690	0.423937	0.077615	0.090319	0.393656	0.047759	0.068607	0.363375	0.597026	0.501031	2.694642	0.000000	0.000000	27.788643	1.956476	-1.854261	9.215822	-8.361883	37.258612	37.065351	85.981275	3.249769	-3.764491	17.719333	-7.533578	63.892856	38.759959	55.578185	1.635849	-1.914907
0.083333	-0.591997	-4.788066	88.532512	0.319378	0.919437	0.646553	9.667697	-0.702940	-0.448020	9.020574	0.157439	27.764615	-5.247284	0.000000	11.338221	-0.851829	12.780103	8.858273	0.154606	33.822617	-1.903358	0.000000	0.079444	0.071428	0.504921	0.147535	0.094999	0.536479	0.130518	0.173670	0.536479	0.090796	0.173670	0.441806	0.073771	0.145656	0.410248	0.045394	0.110642	0.378691	0.567458	0.808006	2.808220	0.000000	0.000000	27.689137	1.654242	-2.342850	9.866246	-8.072546	39.396927	37.150535	84.160566	5.318324	-2.780597	19.321947	-6.796221	66.793728	38.901251	51.017753	3.264616	-0.680402
